<svg xmlns="http://www.w3.org/2000/svg" enable-background="new 0 0 512 512" viewBox="0 0 512 512"><path fill="#94c1ff" d="M453.797,58.738v415.349c0,19.005-15.407,34.412-34.412,34.412H92.302
			c-19.005,0-34.412-15.407-34.412-34.412V58.738c0-19.005,15.407-34.412,34.412-34.412h327.083
			C438.39,24.326,453.797,39.733,453.797,58.738z"/><path fill="#d7e9ff" d="M92.302,456.88V75.943c0-9.503,7.703-17.206,17.206-17.206h292.672
			c9.503,0,17.206,7.703,17.206,17.206V456.88c0,9.503-7.703,17.206-17.206,17.206H109.508
			C100.005,474.086,92.302,466.383,92.302,456.88z"/><path fill="#116fff" d="M474.633 393.363c-1.797 0-3.254 1.457-3.254 3.254v49.016c0 1.797 1.457 3.254 3.254 3.254s3.254-1.457 3.254-3.254v-49.016C477.887 394.82 476.43 393.363 474.633 393.363zM474.633 367.203c-1.797 0-3.254 1.457-3.254 3.254v9.06c0 1.797 1.457 3.254 3.254 3.254s3.254-1.457 3.254-3.254v-9.06C477.887 368.659 476.43 367.203 474.633 367.203zM40.999 38.089c-1.702-.577-3.55.325-4.133 2.023-1.345 3.925-2.264 8.063-2.733 12.306-.198 1.787 1.089 3.394 2.875 3.592 1.706.213 3.39-1.036 3.592-2.875.418-3.77 1.233-7.441 2.423-10.913C43.605 40.522 42.699 38.671 40.999 38.089zM92.292 6.755h1.197c1.797 0 3.254-1.457 3.254-3.254s-1.457-3.254-3.254-3.254h-1.197c-18.092 0-34.88 8.198-46.06 22.49-1.107 1.416-.858 3.462.558 4.568 1.407 1.1 3.45.867 4.567-.557C61.297 14.043 76.216 6.755 92.292 6.755zM419.385 21.072H92.302c-20.769 0-37.666 16.897-37.666 37.666v415.349c0 20.769 16.897 37.666 37.666 37.666h327.083c20.769 0 37.666-16.897 37.666-37.666V58.738C457.051 37.969 440.154 21.072 419.385 21.072zM450.543 474.087c0 17.182-13.978 31.158-31.158 31.158H92.302c-17.181 0-31.158-13.976-31.158-31.158V58.738c0-17.182 13.978-31.158 31.158-31.158h327.083c17.181 0 31.158 13.976 31.158 31.158V474.087z"/><path fill="#116fff" d="M402.179,55.482H109.508c-11.282,0-20.46,9.179-20.46,20.461v380.937
				c0,11.282,9.178,20.461,20.46,20.461h292.671c11.282,0,20.46-9.179,20.46-20.461V75.943
				C422.639,64.661,413.461,55.482,402.179,55.482z M252.59,165.828v28.12H95.556v-28.12H252.59z M95.556,159.32v-28.118H252.59
				v28.118H95.556z M252.59,200.456v28.077H95.556v-28.077H252.59z M252.59,235.041v28.118H95.556v-28.118H252.59z M252.59,269.666
				v28.12H95.556v-28.12H252.59z M252.59,304.294v28.075H95.556v-28.075H252.59z M252.59,338.877v28.12H95.556v-28.12H252.59z
				 M252.59,373.505v28.118H95.556v-28.118H252.59z M259.097,373.505h157.034v28.118H259.097V373.505z M259.097,366.997v-28.12
				h157.034v28.12H259.097z M259.097,332.369v-28.075h157.034v28.075H259.097z M259.097,297.787v-28.12h157.034v28.12H259.097z
				 M259.097,263.158v-28.118h157.034v28.118H259.097z M259.097,228.533v-28.077h157.034v28.077H259.097z M259.097,193.948v-28.12
				h157.034v28.12H259.097z M259.097,159.32v-28.118h157.034v28.118H259.097z M259.097,124.695V96.617h157.034v28.077H259.097z
				 M252.59,124.695H95.556V96.617H252.59V124.695z M95.556,408.13H252.59v28.077H95.556V408.13z M259.097,408.13h157.034v28.077
				H259.097V408.13z M416.131,75.943V90.11H259.097v-28.12h143.082C409.873,61.989,416.131,68.248,416.131,75.943z M109.508,61.989
				H252.59v28.12H95.556V75.943C95.556,68.248,101.815,61.989,109.508,61.989z M95.556,456.879v-14.164H252.59v28.118H109.508
				C101.815,470.833,95.556,464.574,95.556,456.879z M402.179,470.833H259.097v-28.118h157.034v14.164
				C416.131,464.574,409.873,470.833,402.179,470.833z"/></svg>