<?xml version="1.0" encoding="UTF-8"?>
<svg xmlns="http://www.w3.org/2000/svg" xmlns:xlink="http://www.w3.org/1999/xlink" width="40px" height="41px" viewBox="0 0 40 40" version="1.1">
<g id="surface1">
<path style=" stroke:none;fill-rule:nonzero;fill:rgb(25.882353%,52.156863%,95.686275%);fill-opacity:1;" d="M 20.398438 16.363281 L 20.398438 24.109375 L 31.375 24.109375 C 30.890625 26.601562 29.445312 28.710938 27.277344 30.128906 L 33.894531 35.164062 C 37.753906 31.671875 39.976562 26.546875 39.976562 20.453125 C 39.976562 19.035156 39.847656 17.671875 39.605469 16.363281 Z M 20.398438 16.363281 "/>
<path style=" stroke:none;fill-rule:nonzero;fill:rgb(20.392157%,65.882353%,32.54902%);fill-opacity:1;" d="M 8.964844 23.808594 L 7.472656 24.925781 L 2.1875 28.964844 C 5.542969 35.492188 12.421875 40 20.394531 40 C 25.902344 40 30.519531 38.21875 33.894531 35.164062 L 27.273438 30.128906 C 25.457031 31.328125 23.140625 32.054688 20.394531 32.054688 C 15.09375 32.054688 10.585938 28.546875 8.972656 23.820312 Z M 8.964844 23.808594 "/>
<path style=" stroke:none;fill-rule:nonzero;fill:rgb(98.431373%,73.72549%,1.960784%);fill-opacity:1;" d="M 2.1875 11.035156 C 0.796875 13.726562 0 16.765625 0 20 C 0 23.234375 0.796875 26.273438 2.1875 28.964844 C 2.1875 28.980469 8.976562 23.800781 8.976562 23.800781 C 8.566406 22.601562 8.324219 21.328125 8.324219 20 C 8.324219 18.671875 8.566406 17.398438 8.976562 16.199219 Z M 2.1875 11.035156 "/>
<path style=" stroke:none;fill-rule:nonzero;fill:rgb(91.764706%,26.27451%,20.784314%);fill-opacity:1;" d="M 20.398438 7.964844 C 23.402344 7.964844 26.070312 8.980469 28.203125 10.945312 L 34.042969 5.21875 C 30.503906 1.980469 25.902344 0 20.398438 0 C 12.421875 0 5.542969 4.492188 2.1875 11.035156 L 8.972656 16.199219 C 10.585938 11.472656 15.09375 7.964844 20.398438 7.964844 Z M 20.398438 7.964844 "/>
</g>
</svg>
