<svg xmlns="http://www.w3.org/2000/svg" enable-background="new 0 0 64 64" viewBox="0 0 64 64"><rect width="15" height="7" x="13" y="2" fill="#88898d"/><path fill="#9c9d9e" d="M20.261,7.5H28V2H14.513C14.651,5.06,17.167,7.5,20.261,7.5z"/><path fill="#c3313c" d="M50.837,28.447l-3.993-13.576C46.344,13.169,44.781,12,43.007,12h-10.35
		c-1.061,0-2.078,0.421-2.828,1.172L13,30v30c0,1.105,0.895,2,2,2h34c1.105,0,2-0.895,2-2V29.576
		C51,29.194,50.945,28.814,50.837,28.447z M33.431,19.298C33.161,19.111,33,18.804,33,18.476V17c0-0.552,0.448-1,1-1h8.219
		c0.459,0,0.859,0.312,0.97,0.757L46,28L33.431,19.298z"/><path fill="#db3845" d="M46.844,14.871C46.344,13.169,44.781,12,43.007,12h-10.35c-1.061,0-2.078,0.421-2.828,1.172L13,30
		v8.686c5.082,7.967,15.856,15.205,38,16.197V29.576c0-0.382-0.055-0.762-0.163-1.129L46.844,14.871z M33.431,19.298
		C33.161,19.111,33,18.804,33,18.476V17c0-0.552,0.448-1,1-1h8.219c0.459,0,0.859,0.312,0.97,0.757L46,28L33.431,19.298z"/><polygon fill="#e5e5e5" points="17 32 25 24 34 24 41 30 41 59 17 59"/><path fill="#f2f2f2" d="M25,24l-5,5v11.353C20,48.442,26.558,55,34.647,55H41V30l-7-6H25z"/><path fill="#e5e5e5" d="M30.295,50.839l0.155-0.083c1.302-0.695,2.125-2.114,2.125-3.667v0c0-0.441-0.067-0.879-0.197-1.297
		l-3.803-9.52l-3.803,9.52c-0.131,0.418-0.197,0.856-0.197,1.297v0c0,1.553,0.823,2.973,2.125,3.667l0.155,0.083
		C27.939,51.416,29.213,51.416,30.295,50.839z"/><path fill="#ffb127" d="M30.719,49.567l0.155-0.083C32.177,48.79,33,47.37,33,45.817v0c0-0.441-0.067-0.879-0.197-1.297
		L29,35l-3.803,9.52C25.067,44.938,25,45.376,25,45.817v0c0,1.553,0.823,2.973,2.125,3.667l0.155,0.083
		C28.363,50.144,29.637,50.144,30.719,49.567z"/><polygon fill="#92252d" points="13 30 13 14 15 12 26 12 28 14 28 15"/><rect width="6" height="2" x="13" y="16" fill="#6e1c22"/><rect width="6" height="2" x="13" y="20" fill="#6e1c22"/><path fill="#92252d" d="M51,39h-5c-1.105,0-2-0.895-2-2v0c0-1.105,0.895-2,2-2h5V39z"/><rect width="11" height="3" x="15" y="9" fill="#6e1c22"/><rect width="2" height="3" x="15" y="4" fill="#77787c"/><rect width="2" height="3" x="18" y="4" fill="#77787c"/><rect width="2" height="3" x="21" y="4" fill="#77787c"/><rect width="2" height="3" x="24" y="4" fill="#77787c"/><path fill="#92252d" d="M51 48h-5c-1.105 0-2-.895-2-2v0c0-1.105.895-2 2-2h5V48zM51 57h-5c-1.105 0-2-.895-2-2v0c0-1.105.895-2 2-2h5V57z"/><path fill="#ffc239" d="M32.993,45.727c-0.009-0.41-0.069-0.817-0.19-1.206L29,35l-3.36,8.411
		c0,0.019-0.004,0.038-0.004,0.058c0,1.553,0.823,2.973,2.125,3.668l0.155,0.083c1.082,0.577,2.356,0.577,3.439,0l0.155-0.083
		C32.125,46.808,32.628,46.315,32.993,45.727z"/><path fill="#e9888f" d="M41.208,12c-0.003,1.165,0.918,2.786,2.464,4.135c1.408,1.228,2.96,1.896,4.099,1.888l-0.927-3.151
		C46.344,13.169,44.781,12,43.007,12H41.208z"/><ellipse cx="29.924" cy="42.918" fill="#fff3d7" rx="1.403" ry="2.824" transform="rotate(-12.258 29.933 42.922)"/><path d="M29.929,34.629C29.777,34.249,29.409,34,29,34s-0.777,0.249-0.929,0.629l-3.828,9.592C24.082,44.736,24,45.273,24,45.817
		c0,1.933,1.017,3.676,2.655,4.55l0.154,0.082c0.687,0.366,1.438,0.548,2.19,0.548s1.504-0.183,2.19-0.548l0.155-0.083
		C32.983,49.493,34,47.75,34,45.817c0-0.544-0.082-1.081-0.269-1.668L29.929,34.629z M30.405,48.602l-0.155,0.083c0,0,0,0-0.001,0
		c-0.792,0.422-1.703,0.423-2.499,0l-0.154-0.082C26.626,48.084,26,46.991,26,45.817c0-0.341,0.051-0.677,0.126-0.926L29,37.695
		l2.849,7.124C31.949,45.14,32,45.476,32,45.817C32,46.991,31.374,48.084,30.405,48.602z"/><path d="M15,63h34c1.654,0,3-1.346,3-3V29.576c0-0.477-0.068-0.952-0.203-1.411l-3.993-13.576C47.183,12.476,45.209,11,43.007,11
		h-10.35c-1.336,0-2.592,0.52-3.536,1.464L28.5,13.086l-1.5-1.5V10h1c0.553,0,1-0.448,1-1V2c0-0.552-0.447-1-1-1H13
		c-0.553,0-1,0.448-1,1v7c0,0.552,0.447,1,1,1h1v1.586l-1.707,1.707C12.105,13.48,12,13.735,12,14v16v30C12,61.654,13.346,63,15,63z
		 M50,56h-4c-0.552,0-1-0.449-1-1s0.448-1,1-1h4V56z M50,47h-4c-0.552,0-1-0.449-1-1s0.448-1,1-1h4V47z M50,38h-4
		c-0.552,0-1-0.449-1-1s0.448-1,1-1h4V38z M30.535,13.878C31.102,13.312,31.855,13,32.657,13h10.35c1.321,0,2.506,0.886,2.879,2.153
		l3.992,13.575C49.959,29.004,50,29.29,50,29.576V34h-4c-1.654,0-3,1.346-3,3s1.346,3,3,3h4v3h-4c-1.654,0-3,1.346-3,3s1.346,3,3,3
		h4v3h-4c-1.654,0-3,1.346-3,3s1.346,3,3,3h4v2c0,0.551-0.448,1-1,1H15c-0.552,0-1-0.449-1-1V30.414L30.535,13.878z M14,3h13v5H14V3
		z M25,10v1h-9v-1H25z M15.414,13h10.172L27,14.414v0.171l-13,13V22h5v-2h-5v-2h5v-2h-5v-1.586L15.414,13z"/><path d="M17 60h24c.553 0 1-.448 1-1V30c0-.292-.128-.569-.35-.759l-7-6C34.47 23.085 34.238 23 34 23h-9c-.266 0-.52.105-.707.293l-8 8C16.105 31.48 16 31.735 16 32v27C16 59.552 16.447 60 17 60zM18 32.414L25.414 25h8.216L40 30.46V58H18V32.414zM32.861 20.121l12.569 8.702C45.602 28.941 45.801 29 46 29s.397-.059.569-.178c.342-.237.502-.661.4-1.065l-2.811-11.243C43.937 15.623 43.139 15 42.219 15H34c-1.103 0-2 .897-2 2v1.476C32 19.131 32.321 19.746 32.861 20.121zM42.22 17l2.166 8.666L34 18.476 33.999 17H42.22z"/><rect width="2" height="3" x="15" y="4"/><rect width="2" height="3" x="18" y="4"/><rect width="2" height="3" x="21" y="4"/><rect width="2" height="3" x="24" y="4"/></svg>