<svg width="1920" height="1080" viewBox="0 0 1920 1080" xmlns="http://www.w3.org/2000/svg"><rect width="1920" height="1080" fill="#1e1e1e"/><path d="M 0,1080 C 0,1080 0,180 0,180 C 180.82820512820513,203.94615384615383 361.65641025641025,227.8923076923077 426,205 C 490.34358974358975,182.1076923076923 438.2025641025641,112.3769230769231 520,117 C 601.7974358974359,121.6230769230769 817.5333333333333,200.59999999999997 981,213 C 1144.4666666666667,225.40000000000003 1255.6641025641024,171.22307692307695 1361,169 C 1466.3358974358976,166.77692307692305 1565.8102564102564,216.5076923076923 1658,227 C 1750.1897435897436,237.4923076923077 1835.0948717948718,208.74615384615385 1920,180 C 1920,180 1920,1080 1920,1080 Z" fill="#111111" opacity="0.09999999999999999"/><path d="M 0,1080 C 0,1080 0,360 0,360 C 90.03333333333333,378.78717948717946 180.06666666666666,397.5743589743589 282,417 C 383.93333333333334,436.4256410256411 497.76666666666665,456.4897435897436 585,426 C 672.2333333333333,395.5102564102564 732.8666666666668,314.46666666666664 861,315 C 989.1333333333332,315.53333333333336 1184.7666666666667,397.6435897435898 1323,399 C 1461.2333333333333,400.3564102564102 1542.0666666666668,320.95897435897433 1632,301 C 1721.9333333333332,281.04102564102567 1820.9666666666667,320.52051282051286 1920,360 C 1920,360 1920,1080 1920,1080 Z" fill="#111111" opacity="0.19999999999999998"/><path d="M 0,1080 C 0,1080 0,540 0,540 C 127.0025641025641,570.2615384615385 254.0051282051282,600.5230769230769 331,603 C 407.9948717948718,605.4769230769231 434.9820512820513,580.1692307692307 556,568 C 677.0179487179487,555.8307692307693 892.0666666666666,556.8000000000001 1004,561 C 1115.9333333333334,565.1999999999999 1124.751282051282,572.6307692307693 1210,578 C 1295.248717948718,583.3692307692307 1456.928205128205,586.6769230769231 1588,580 C 1719.071794871795,573.3230769230769 1819.5358974358974,556.6615384615384 1920,540 C 1920,540 1920,1080 1920,1080 Z" fill="#111111" opacity="0.3"/><path d="M 0,1080 C 0,1080 0,720 0,720 C 136.25384615384615,713.5384615384615 272.5076923076923,707.0769230769231 400,700 C 527.4923076923077,692.9230769230769 646.2230769230769,685.2307692307692 746,689 C 845.7769230769231,692.7692307692308 926.5999999999999,708 1010,728 C 1093.4,748 1179.376923076923,772.7692307692307 1286,782 C 1392.623076923077,791.2307692307693 1519.8923076923077,784.9230769230769 1629,772 C 1738.1076923076923,759.0769230769231 1829.0538461538463,739.5384615384615 1920,720 C 1920,720 1920,1080 1920,1080 Z" fill="#111111" opacity="0.39999999999999997"/><path d="M 0,1080 C 0,1080 0,900 0,900 C 105.3179487179487,904.0102564102564 210.6358974358974,908.0205128205127 348,893 C 485.3641025641026,877.9794871794873 654.774358974359,843.928205128205 747,846 C 839.225641025641,848.071794871795 854.2666666666667,886.2666666666667 910,913 C 965.7333333333333,939.7333333333333 1062.1589743589745,955.0051282051284 1198,941 C 1333.8410256410255,926.9948717948716 1509.0974358974358,883.7128205128205 1636,872 C 1762.9025641025642,860.2871794871795 1841.451282051282,880.1435897435897 1920,900 C 1920,900 1920,1080 1920,1080 Z" fill="#111111" opacity="0.49999999999999994"/></svg>