<svg xmlns="http://www.w3.org/2000/svg" viewBox="0 0 64 64"><g data-name="tire-automobile-car-car Parts"><rect width="54" height="6" x="7" y="47" fill="#2d2d30"/><path fill="#57565c" d="M61 53v3a4.712 4.712 0 0 1-.1 1H7.1A4.712 4.712 0 0 1 7 56V53zM61 44v3H7V44a4.712 4.712 0 0 1 .1-1H60.9A4.712 4.712 0 0 1 61 44z"/><path fill="#2d2d30" d="M7.1 57H60.9A5 5 0 0 1 56 61H12A5 5 0 0 1 7.1 57zM60.9 43H7.1A5 5 0 0 1 12 39H56A5 5 0 0 1 60.9 43z"/><path fill="#2d2d30" d="M30,3A27,27,0,1,0,57,30,27,27,0,0,0,30,3Zm0,41A14,14,0,1,1,44,30,14,14,0,0,1,30,44Z"/><path fill="#898890" d="M43.68,27a14.223,14.223,0,0,1,0,6H37.24l4.55,4.54a13.976,13.976,0,0,1-4.24,4.25L33,37.24v6.44a14.222,14.222,0,0,1-6,0V37.24l-4.55,4.55a13.976,13.976,0,0,1-4.24-4.25L22.76,33H16.32a14.222,14.222,0,0,1,0-6h6.44l-4.55-4.54a13.9,13.9,0,0,1,4.25-4.25L27,22.76V16.32a14.222,14.222,0,0,1,6,0v6.44l4.54-4.55a13.9,13.9,0,0,1,4.25,4.25L37.24,27Z"/><path fill="#c6c5ca" d="M30,12A18,18,0,1,0,48,30,18,18,0,0,0,30,12Zm0,32A14,14,0,1,1,44,30,14,14,0,0,1,30,44Z"/><path d="M30,11A19,19,0,1,0,49,30,19.017,19.017,0,0,0,30,11Zm0,36A17,17,0,1,1,47,30,17.024,17.024,0,0,1,30,47Z"/><path d="M56.81,38.06A28,28,0,1,0,2,30,27.793,27.793,0,0,0,6,44.4V56a6,6,0,0,0,6,6H56a6,6,0,0,0,6-6V44A6.006,6.006,0,0,0,56.81,38.06ZM59.44,42H55.29c.31-.65.59-1.31.85-1.99A3.986,3.986,0,0,1,59.44,42Zm-52.43.12a25.729,25.729,0,0,1-1.85-4.43l1.92-.51-.52-1.93-1.91.51A25.726,25.726,0,0,1,4.03,31H6V29H4.03a25.726,25.726,0,0,1,.62-4.76l1.91.51.52-1.93-1.92-.51a25.729,25.729,0,0,1,1.85-4.43l1.71.99,1-1.74-1.71-.98a26.433,26.433,0,0,1,2.92-3.8l1.39,1.39,1.42-1.42-1.39-1.39a26.433,26.433,0,0,1,3.8-2.92l.98,1.71,1.74-1-.99-1.71a25.729,25.729,0,0,1,4.43-1.85l.51,1.92,1.93-.52-.51-1.91A25.726,25.726,0,0,1,29,4.03V6h2V4.03a25.726,25.726,0,0,1,4.76.62l-.51,1.91,1.93.52.51-1.92a25.729,25.729,0,0,1,4.43,1.85l-.99,1.71,1.74,1,.98-1.71a26.433,26.433,0,0,1,3.8,2.92l-1.39,1.39,1.42,1.42,1.39-1.39a26.433,26.433,0,0,1,2.92,3.8l-1.71.98,1,1.74,1.71-.99a25.729,25.729,0,0,1,1.85,4.43l-1.92.51.52,1.93,1.91-.51A25.726,25.726,0,0,1,55.97,29H54v2h1.97a25.726,25.726,0,0,1-.62,4.76l-1.91-.51-.52,1.93,1.92.51a25.729,25.729,0,0,1-1.85,4.43l-1.71-.99-1,1.74,1.71.98a26.433,26.433,0,0,1-2.92,3.8l-1.39-1.39-1.42,1.42,1.39,1.39a26.433,26.433,0,0,1-3.8,2.92l-.98-1.71-1.74,1,.99,1.71a25.729,25.729,0,0,1-4.43,1.85l-.51-1.92-1.93.52.51,1.91a25.726,25.726,0,0,1-4.76.62V54H29v1.97a25.726,25.726,0,0,1-4.76-.62l.51-1.91-1.93-.52-.51,1.92a25.729,25.729,0,0,1-4.43-1.85l.99-1.71-1.74-1-.98,1.71a26.433,26.433,0,0,1-3.8-2.92l1.39-1.39-1.42-1.42-1.39,1.39a26.433,26.433,0,0,1-2.92-3.8l1.71-.98-1-1.74ZM12.71,52H8V47.29A28.362,28.362,0,0,0,12.71,52ZM8,54h7.6a27.484,27.484,0,0,0,4.03,2H8Zm48,6H12a3.98,3.98,0,0,1-3.44-2H59.44A3.98,3.98,0,0,1,56,60Zm4-4H40.37a27.484,27.484,0,0,0,4.03-2H60Zm0-4H47.29a28.472,28.472,0,0,0,4.14-4H60Zm0-6H52.96c.45-.65.88-1.31,1.27-2H60Z"/><path d="M30,15A15,15,0,1,0,45,30,15.018,15.018,0,0,0,30,15Zm11.57,9.1a12.675,12.675,0,0,1,.79,1.9h-2.7ZM34,17.64a12.675,12.675,0,0,1,1.9.79L34,20.34Zm-8,0v2.7l-1.9-1.91A12.675,12.675,0,0,1,26,17.64ZM18.43,24.1,20.34,26h-2.7A12.675,12.675,0,0,1,18.43,24.1Zm0,11.8a12.675,12.675,0,0,1-.79-1.9h2.7ZM26,42.36a11.857,11.857,0,0,1-1.91-.8L26,39.65Zm8,0V39.65l1.91,1.91A11.857,11.857,0,0,1,34,42.36Zm7.57-6.46L39.66,34h2.7A12.675,12.675,0,0,1,41.57,35.9ZM37.24,32a.987.987,0,0,0-.92.62,1,1,0,0,0,.21,1.09l3.96,3.94a13.1,13.1,0,0,1-2.83,2.83l-3.95-3.95a1,1,0,0,0-1.09-.21.987.987,0,0,0-.62.92v5.59a11.85,11.85,0,0,1-4,0V37.24a.987.987,0,0,0-.62-.92,1,1,0,0,0-1.09.21l-3.95,3.95a13.1,13.1,0,0,1-2.83-2.83l3.96-3.94a1,1,0,0,0,.21-1.09.987.987,0,0,0-.92-.62H17.17a11.85,11.85,0,0,1,0-4h5.59a.987.987,0,0,0,.92-.62,1,1,0,0,0-.21-1.09l-3.96-3.94a13.188,13.188,0,0,1,2.84-2.84l3.94,3.96a1.007,1.007,0,0,0,.71.29,1.015,1.015,0,0,0,1-1V17.17a11.85,11.85,0,0,1,4,0v5.59a1.015,1.015,0,0,0,1,1,1.007,1.007,0,0,0,.71-.29l3.94-3.96a13.188,13.188,0,0,1,2.84,2.84l-3.96,3.94a1,1,0,0,0-.21,1.09.987.987,0,0,0,.92.62h5.59a11.85,11.85,0,0,1,0,4Z"/></g></svg>