<svg xmlns="http://www.w3.org/2000/svg" enable-background="new 0 0 24 24" viewBox="0 0 24 24"><path fill="#d3d3d3" d="M21,17h-8.2918H7l-2-6l0,0c5.45-3.6333,12.55-3.6333,18,0l0,0L21,17z"/><path fill="#262656" d="M21.5547 11.168C15.75 7.2988 8.25 7.2988 2.4453 11.168c-.375.25-.5361.7207-.3936 1.1484l2 6C4.1875 18.7246 4.5693 19 5 19h5.2769l.8549 1.4961C11.3164 20.8193 11.6533 21 12.001 21c.168 0 .3389-.042.4951-.1318.4795-.2744.6465-.8848.3721-1.3643L12.5802 19H19c.4307 0 .8125-.2754.9482-.6836l2-6C22.0908 11.8887 21.9297 11.418 21.5547 11.168zM18.2793 17h-6.8419l-2.5692-4.4961c-.2734-.4795-.8848-.6484-1.3643-.3721-.4795.2744-.6465.8848-.3721 1.3643L9.1341 17H5.7207l-1.5244-4.5732c2.3121-1.383 4.8914-2.0948 7.4811-2.1499.0875.0754.1979.1255.3226.1255s.2351-.0501.3226-.1255c2.5897.0551 5.1689.7669 7.4811 2.1499L18.2793 17zM10 4.5703c.2393.0674.4629.1816.665.3408.0918.0723.2012.1074.3096.1074.1475 0 .2939-.0654.3926-.1904.1709-.2168.1338-.5313-.083-.7021-.3057-.2412-.6465-.415-1.0127-.5186C10 3.5313 9.7295 3.6885 9.6543 3.9531 9.5801 4.2197 9.7344 4.4951 10 4.5703zM7.5938 5.4502c.1475 0 .293-.0645.3916-.1895.1631-.2061.3564-.375.5723-.502C8.7949 4.6191 8.875 4.3125 8.7344 4.0742 8.5938 3.835 8.2871 3.7568 8.0498 3.8975 7.7275 4.0869 7.4424 4.3369 7.2021 4.6396 7.0303 4.8555 7.0664 5.1699 7.2832 5.3418 7.375 5.415 7.4844 5.4502 7.5938 5.4502z"/><path fill="#262656" d="M11.4512 6.21C11.4834 6.3672 11.5 6.5293 11.5 6.6924v.3613c0 .2764.2236.5.5.5s.5-.2236.5-.5V6.6924c0-.1631.0166-.3252.0488-.4824.0566-.2705-.1172-.5352-.3877-.5908-.0413-.0093-.0814-.0034-.1219-.002C12.0266 5.6146 12.0129 5.6181 12 5.6166c-.0129.0015-.0266-.002-.0392.0006-.0405-.0015-.0806-.0074-.1219.002C11.5684 5.6748 11.3945 5.9395 11.4512 6.21zM7 7.7305c.2764 0 .5-.2236.5-.5v-.5c0-.2764-.2236-.5-.5-.5s-.5.2236-.5.5v.5C6.5 7.5068 6.7236 7.7305 7 7.7305zM15.4424 4.7588c.2158.127.4092.2959.5723.502.0986.125.2441.1895.3916.1895.1094 0 .2188-.0352.3105-.1084.2168-.1719.2529-.4863.0811-.7021-.2402-.3027-.5254-.5527-.8477-.7422-.2383-.1396-.5439-.0615-.6846.1768S15.2051 4.6191 15.4424 4.7588zM13.0254 5.0186c.1084 0 .2178-.0352.3096-.1074C13.5371 4.752 13.7607 4.6377 14 4.5703c.2656-.0752.4199-.3506.3457-.6172C14.2705 3.6885 14 3.5332 13.7285 3.6074c-.3662.1035-.707.2773-1.0127.5186-.2168.1709-.2539.4854-.083.7021C12.7314 4.9531 12.8779 5.0186 13.0254 5.0186zM12 14.1514c-.2764 0-.5.2236-.5.5v.9492c0 .2764.2236.5.5.5s.5-.2236.5-.5v-.9492C12.5 14.375 12.2764 14.1514 12 14.1514zM12 11.3018c-.2764 0-.5.2236-.5.5v.9502c0 .2764.2236.5.5.5s.5-.2236.5-.5v-.9502C12.5 11.5254 12.2764 11.3018 12 11.3018zM16.5 6.7305v.5c0 .2764.2236.5.5.5s.5-.2236.5-.5v-.5c0-.2764-.2236-.5-.5-.5S16.5 6.4541 16.5 6.7305z"/></svg>